<mxfile host="app.diagrams.net" modified="2023-04-24T11:05:49.592Z" agent="Mozilla/5.0 (Windows NT 10.0; Win64; x64) AppleWebKit/537.36 (KHTML, like Gecko) Chrome/109.0.0.0 Safari/537.36" etag="Teg-S_So7PlsMBWrFRJO" version="21.2.1" type="github">
  <diagram id="C5RBs43oDa-KdzZeNtuy" name="Page-1">
    <mxGraphModel dx="1434" dy="764" grid="1" gridSize="10" guides="1" tooltips="1" connect="1" arrows="1" fold="1" page="1" pageScale="1" pageWidth="827" pageHeight="1169" math="0" shadow="0">
      <root>
        <mxCell id="WIyWlLk6GJQsqaUBKTNV-0" />
        <mxCell id="WIyWlLk6GJQsqaUBKTNV-1" parent="WIyWlLk6GJQsqaUBKTNV-0" />
        <mxCell id="7vyjgsjqata19QfuYp4s-27" value="" style="rounded=0;html=1;jettySize=auto;orthogonalLoop=1;fontSize=11;endArrow=block;endFill=0;endSize=8;strokeWidth=1;shadow=0;labelBackgroundColor=none;edgeStyle=orthogonalEdgeStyle;" edge="1" parent="WIyWlLk6GJQsqaUBKTNV-1" source="7vyjgsjqata19QfuYp4s-28" target="7vyjgsjqata19QfuYp4s-31">
          <mxGeometry relative="1" as="geometry" />
        </mxCell>
        <mxCell id="7vyjgsjqata19QfuYp4s-28" value="Order book" style="rounded=1;whiteSpace=wrap;html=1;fontSize=12;glass=0;strokeWidth=1;shadow=0;" vertex="1" parent="WIyWlLk6GJQsqaUBKTNV-1">
          <mxGeometry x="170" y="90" width="120" height="40" as="geometry" />
        </mxCell>
        <mxCell id="7vyjgsjqata19QfuYp4s-29" value="" style="edgeStyle=orthogonalEdgeStyle;shape=connector;rounded=0;orthogonalLoop=1;jettySize=auto;html=1;labelBackgroundColor=default;strokeColor=default;strokeWidth=1;fontFamily=Helvetica;fontSize=11;fontColor=default;endArrow=block;endFill=0;entryX=0;entryY=0.5;entryDx=0;entryDy=0;" edge="1" parent="WIyWlLk6GJQsqaUBKTNV-1" source="7vyjgsjqata19QfuYp4s-31" target="7vyjgsjqata19QfuYp4s-40">
          <mxGeometry relative="1" as="geometry">
            <mxPoint x="350" y="245" as="targetPoint" />
          </mxGeometry>
        </mxCell>
        <mxCell id="7vyjgsjqata19QfuYp4s-69" style="edgeStyle=orthogonalEdgeStyle;rounded=0;orthogonalLoop=1;jettySize=auto;html=1;entryX=0.5;entryY=0;entryDx=0;entryDy=0;entryPerimeter=0;endArrow=block;endFill=0;" edge="1" parent="WIyWlLk6GJQsqaUBKTNV-1" source="7vyjgsjqata19QfuYp4s-31" target="7vyjgsjqata19QfuYp4s-54">
          <mxGeometry relative="1" as="geometry" />
        </mxCell>
        <mxCell id="7vyjgsjqata19QfuYp4s-31" value="Does Librarian accept" style="rhombus;whiteSpace=wrap;html=1;shadow=0;fontFamily=Helvetica;fontSize=12;align=center;strokeWidth=1;spacing=6;spacingTop=-4;" vertex="1" parent="WIyWlLk6GJQsqaUBKTNV-1">
          <mxGeometry x="175" y="180" width="110" height="130" as="geometry" />
        </mxCell>
        <mxCell id="7vyjgsjqata19QfuYp4s-68" style="edgeStyle=orthogonalEdgeStyle;rounded=0;orthogonalLoop=1;jettySize=auto;html=1;entryX=0;entryY=0.5;entryDx=0;entryDy=0;endArrow=block;endFill=0;" edge="1" parent="WIyWlLk6GJQsqaUBKTNV-1" source="7vyjgsjqata19QfuYp4s-40" target="7vyjgsjqata19QfuYp4s-42">
          <mxGeometry relative="1" as="geometry" />
        </mxCell>
        <mxCell id="7vyjgsjqata19QfuYp4s-40" value="Rejected notification" style="rounded=1;whiteSpace=wrap;html=1;fontSize=12;glass=0;strokeWidth=1;shadow=0;" vertex="1" parent="WIyWlLk6GJQsqaUBKTNV-1">
          <mxGeometry x="413.5" y="225" width="120" height="40" as="geometry" />
        </mxCell>
        <mxCell id="7vyjgsjqata19QfuYp4s-41" value="" style="edgeStyle=orthogonalEdgeStyle;shape=connector;rounded=0;orthogonalLoop=1;jettySize=auto;html=1;labelBackgroundColor=default;strokeColor=default;strokeWidth=1;fontFamily=Helvetica;fontSize=11;fontColor=default;endArrow=block;endFill=0;entryX=0.5;entryY=0;entryDx=0;entryDy=0;" edge="1" parent="WIyWlLk6GJQsqaUBKTNV-1" source="7vyjgsjqata19QfuYp4s-42" target="7vyjgsjqata19QfuYp4s-45">
          <mxGeometry relative="1" as="geometry">
            <mxPoint x="665" y="530" as="targetPoint" />
          </mxGeometry>
        </mxCell>
        <mxCell id="7vyjgsjqata19QfuYp4s-42" value="Request cancel" style="rounded=1;whiteSpace=wrap;html=1;fontSize=12;glass=0;strokeWidth=1;shadow=0;" vertex="1" parent="WIyWlLk6GJQsqaUBKTNV-1">
          <mxGeometry x="605" y="225" width="120" height="40" as="geometry" />
        </mxCell>
        <mxCell id="7vyjgsjqata19QfuYp4s-45" value="End" style="rounded=1;whiteSpace=wrap;html=1;fontSize=12;glass=0;strokeWidth=1;shadow=0;" vertex="1" parent="WIyWlLk6GJQsqaUBKTNV-1">
          <mxGeometry x="605" y="1260" width="120" height="40" as="geometry" />
        </mxCell>
        <mxCell id="7vyjgsjqata19QfuYp4s-48" value="Rejected" style="text;html=1;align=center;verticalAlign=middle;resizable=0;points=[];autosize=1;strokeColor=none;fillColor=none;fontSize=11;fontFamily=Helvetica;fontColor=default;" vertex="1" parent="WIyWlLk6GJQsqaUBKTNV-1">
          <mxGeometry x="275" y="218" width="70" height="30" as="geometry" />
        </mxCell>
        <mxCell id="7vyjgsjqata19QfuYp4s-49" value="Approved" style="text;html=1;align=center;verticalAlign=middle;resizable=0;points=[];autosize=1;strokeColor=none;fillColor=none;fontSize=11;fontFamily=Helvetica;fontColor=default;" vertex="1" parent="WIyWlLk6GJQsqaUBKTNV-1">
          <mxGeometry x="250" y="320" width="70" height="30" as="geometry" />
        </mxCell>
        <mxCell id="7vyjgsjqata19QfuYp4s-51" value="Vendor" style="strokeWidth=1;html=1;shape=mxgraph.flowchart.start_2;whiteSpace=wrap;fontFamily=Helvetica;fontSize=11;fontColor=default;" vertex="1" parent="WIyWlLk6GJQsqaUBKTNV-1">
          <mxGeometry x="110" y="660" width="50" height="90" as="geometry" />
        </mxCell>
        <mxCell id="7vyjgsjqata19QfuYp4s-70" style="edgeStyle=orthogonalEdgeStyle;rounded=0;orthogonalLoop=1;jettySize=auto;html=1;entryX=0.5;entryY=0;entryDx=0;entryDy=0;endArrow=block;endFill=0;" edge="1" parent="WIyWlLk6GJQsqaUBKTNV-1" source="7vyjgsjqata19QfuYp4s-54" target="7vyjgsjqata19QfuYp4s-55">
          <mxGeometry relative="1" as="geometry" />
        </mxCell>
        <mxCell id="7vyjgsjqata19QfuYp4s-71" style="edgeStyle=orthogonalEdgeStyle;rounded=0;orthogonalLoop=1;jettySize=auto;html=1;entryX=0.5;entryY=0;entryDx=0;entryDy=0;endArrow=block;endFill=0;" edge="1" parent="WIyWlLk6GJQsqaUBKTNV-1" source="7vyjgsjqata19QfuYp4s-54" target="7vyjgsjqata19QfuYp4s-66">
          <mxGeometry relative="1" as="geometry" />
        </mxCell>
        <mxCell id="7vyjgsjqata19QfuYp4s-54" value="Is book in inventory" style="strokeWidth=1;html=1;shape=mxgraph.flowchart.decision;whiteSpace=wrap;" vertex="1" parent="WIyWlLk6GJQsqaUBKTNV-1">
          <mxGeometry x="180" y="390" width="100" height="100" as="geometry" />
        </mxCell>
        <mxCell id="7vyjgsjqata19QfuYp4s-72" style="edgeStyle=orthogonalEdgeStyle;rounded=0;orthogonalLoop=1;jettySize=auto;html=1;entryX=0.5;entryY=0;entryDx=0;entryDy=0;entryPerimeter=0;endArrow=block;endFill=0;" edge="1" parent="WIyWlLk6GJQsqaUBKTNV-1" source="7vyjgsjqata19QfuYp4s-55" target="7vyjgsjqata19QfuYp4s-58">
          <mxGeometry relative="1" as="geometry" />
        </mxCell>
        <mxCell id="7vyjgsjqata19QfuYp4s-55" value="Inform of backordered status" style="rounded=1;whiteSpace=wrap;html=1;" vertex="1" parent="WIyWlLk6GJQsqaUBKTNV-1">
          <mxGeometry x="170" y="554.5" width="120" height="35.5" as="geometry" />
        </mxCell>
        <mxCell id="7vyjgsjqata19QfuYp4s-74" value="" style="edgeStyle=orthogonalEdgeStyle;rounded=0;orthogonalLoop=1;jettySize=auto;html=1;endArrow=block;endFill=0;" edge="1" parent="WIyWlLk6GJQsqaUBKTNV-1" source="7vyjgsjqata19QfuYp4s-56" target="7vyjgsjqata19QfuYp4s-59">
          <mxGeometry relative="1" as="geometry" />
        </mxCell>
        <mxCell id="7vyjgsjqata19QfuYp4s-56" value="Receive backordered book" style="rounded=1;whiteSpace=wrap;html=1;" vertex="1" parent="WIyWlLk6GJQsqaUBKTNV-1">
          <mxGeometry x="170" y="730" width="120" height="40" as="geometry" />
        </mxCell>
        <mxCell id="7vyjgsjqata19QfuYp4s-57" value="No" style="text;html=1;align=center;verticalAlign=middle;resizable=0;points=[];autosize=1;strokeColor=none;fillColor=none;" vertex="1" parent="WIyWlLk6GJQsqaUBKTNV-1">
          <mxGeometry x="250" y="498" width="40" height="30" as="geometry" />
        </mxCell>
        <mxCell id="7vyjgsjqata19QfuYp4s-73" value="" style="edgeStyle=orthogonalEdgeStyle;rounded=0;orthogonalLoop=1;jettySize=auto;html=1;endArrow=block;endFill=0;" edge="1" parent="WIyWlLk6GJQsqaUBKTNV-1" source="7vyjgsjqata19QfuYp4s-58" target="7vyjgsjqata19QfuYp4s-56">
          <mxGeometry relative="1" as="geometry" />
        </mxCell>
        <mxCell id="7vyjgsjqata19QfuYp4s-58" value="Wait" style="strokeWidth=2;html=1;shape=mxgraph.flowchart.delay;whiteSpace=wrap;" vertex="1" parent="WIyWlLk6GJQsqaUBKTNV-1">
          <mxGeometry x="205" y="660" width="50" height="30" as="geometry" />
        </mxCell>
        <mxCell id="7vyjgsjqata19QfuYp4s-76" style="edgeStyle=orthogonalEdgeStyle;rounded=0;orthogonalLoop=1;jettySize=auto;html=1;entryX=0;entryY=0.5;entryDx=0;entryDy=0;endArrow=block;endFill=0;" edge="1" parent="WIyWlLk6GJQsqaUBKTNV-1" source="7vyjgsjqata19QfuYp4s-59" target="7vyjgsjqata19QfuYp4s-60">
          <mxGeometry relative="1" as="geometry" />
        </mxCell>
        <mxCell id="7vyjgsjqata19QfuYp4s-59" value="Notification backordered received" style="rounded=1;whiteSpace=wrap;html=1;" vertex="1" parent="WIyWlLk6GJQsqaUBKTNV-1">
          <mxGeometry x="170" y="810" width="120" height="60" as="geometry" />
        </mxCell>
        <mxCell id="7vyjgsjqata19QfuYp4s-77" style="edgeStyle=orthogonalEdgeStyle;rounded=0;orthogonalLoop=1;jettySize=auto;html=1;entryX=0.5;entryY=0;entryDx=0;entryDy=0;endArrow=block;endFill=0;" edge="1" parent="WIyWlLk6GJQsqaUBKTNV-1" source="7vyjgsjqata19QfuYp4s-60" target="7vyjgsjqata19QfuYp4s-61">
          <mxGeometry relative="1" as="geometry" />
        </mxCell>
        <mxCell id="7vyjgsjqata19QfuYp4s-60" value="Delivery book" style="rounded=1;whiteSpace=wrap;html=1;" vertex="1" parent="WIyWlLk6GJQsqaUBKTNV-1">
          <mxGeometry x="400" y="810" width="120" height="60" as="geometry" />
        </mxCell>
        <mxCell id="7vyjgsjqata19QfuYp4s-78" style="edgeStyle=orthogonalEdgeStyle;rounded=0;orthogonalLoop=1;jettySize=auto;html=1;entryX=0.5;entryY=0;entryDx=0;entryDy=0;entryPerimeter=0;endArrow=block;endFill=0;" edge="1" parent="WIyWlLk6GJQsqaUBKTNV-1" source="7vyjgsjqata19QfuYp4s-61" target="7vyjgsjqata19QfuYp4s-62">
          <mxGeometry relative="1" as="geometry" />
        </mxCell>
        <mxCell id="7vyjgsjqata19QfuYp4s-61" value="Book is received" style="rounded=1;whiteSpace=wrap;html=1;" vertex="1" parent="WIyWlLk6GJQsqaUBKTNV-1">
          <mxGeometry x="400" y="920" width="120" height="60" as="geometry" />
        </mxCell>
        <mxCell id="7vyjgsjqata19QfuYp4s-79" style="edgeStyle=orthogonalEdgeStyle;rounded=0;orthogonalLoop=1;jettySize=auto;html=1;entryX=0.5;entryY=0;entryDx=0;entryDy=0;endArrow=block;endFill=0;" edge="1" parent="WIyWlLk6GJQsqaUBKTNV-1" source="7vyjgsjqata19QfuYp4s-62" target="7vyjgsjqata19QfuYp4s-63">
          <mxGeometry relative="1" as="geometry" />
        </mxCell>
        <mxCell id="7vyjgsjqata19QfuYp4s-62" value="Wait" style="strokeWidth=2;html=1;shape=mxgraph.flowchart.delay;whiteSpace=wrap;" vertex="1" parent="WIyWlLk6GJQsqaUBKTNV-1">
          <mxGeometry x="435" y="1010" width="50" height="30" as="geometry" />
        </mxCell>
        <mxCell id="7vyjgsjqata19QfuYp4s-80" style="edgeStyle=orthogonalEdgeStyle;rounded=0;orthogonalLoop=1;jettySize=auto;html=1;entryX=0.5;entryY=0;entryDx=0;entryDy=0;endArrow=block;endFill=0;" edge="1" parent="WIyWlLk6GJQsqaUBKTNV-1" source="7vyjgsjqata19QfuYp4s-63" target="7vyjgsjqata19QfuYp4s-64">
          <mxGeometry relative="1" as="geometry" />
        </mxCell>
        <mxCell id="7vyjgsjqata19QfuYp4s-63" value="Notification date pay back" style="rounded=1;whiteSpace=wrap;html=1;" vertex="1" parent="WIyWlLk6GJQsqaUBKTNV-1">
          <mxGeometry x="400" y="1080" width="120" height="60" as="geometry" />
        </mxCell>
        <mxCell id="7vyjgsjqata19QfuYp4s-81" style="edgeStyle=orthogonalEdgeStyle;rounded=0;orthogonalLoop=1;jettySize=auto;html=1;entryX=0;entryY=0.5;entryDx=0;entryDy=0;exitX=0.5;exitY=1;exitDx=0;exitDy=0;endArrow=block;endFill=0;" edge="1" parent="WIyWlLk6GJQsqaUBKTNV-1" source="7vyjgsjqata19QfuYp4s-64" target="7vyjgsjqata19QfuYp4s-45">
          <mxGeometry relative="1" as="geometry" />
        </mxCell>
        <mxCell id="7vyjgsjqata19QfuYp4s-64" value="Take the book back" style="rounded=1;whiteSpace=wrap;html=1;" vertex="1" parent="WIyWlLk6GJQsqaUBKTNV-1">
          <mxGeometry x="400" y="1180" width="120" height="60" as="geometry" />
        </mxCell>
        <mxCell id="7vyjgsjqata19QfuYp4s-65" value="Yes" style="text;html=1;align=center;verticalAlign=middle;resizable=0;points=[];autosize=1;strokeColor=none;fillColor=none;" vertex="1" parent="WIyWlLk6GJQsqaUBKTNV-1">
          <mxGeometry x="300" y="410" width="40" height="30" as="geometry" />
        </mxCell>
        <mxCell id="7vyjgsjqata19QfuYp4s-75" style="edgeStyle=orthogonalEdgeStyle;rounded=0;orthogonalLoop=1;jettySize=auto;html=1;entryX=0.5;entryY=0;entryDx=0;entryDy=0;endArrow=block;endFill=0;" edge="1" parent="WIyWlLk6GJQsqaUBKTNV-1" source="7vyjgsjqata19QfuYp4s-66" target="7vyjgsjqata19QfuYp4s-60">
          <mxGeometry relative="1" as="geometry" />
        </mxCell>
        <mxCell id="7vyjgsjqata19QfuYp4s-66" value="Inform completion" style="rounded=1;whiteSpace=wrap;html=1;" vertex="1" parent="WIyWlLk6GJQsqaUBKTNV-1">
          <mxGeometry x="400" y="550" width="120" height="60" as="geometry" />
        </mxCell>
      </root>
    </mxGraphModel>
  </diagram>
</mxfile>
